HIERARCHY
ROOT Hips
{
	OFFSET 54.117699 -11.562515 95.698303
	CHANNELS 6 Xposition Yposition Zposition Xrotation Yrotation Zrotation
	JOINT spine
	{
		OFFSET 0.000000 -0.458069 7.965683
		CHANNELS 3 Xrotation Yrotation Zrotation
		JOINT spine1
		{
			OFFSET 0.000000 -0.000001 10.243103
			CHANNELS 3 Xrotation Yrotation Zrotation
			JOINT spine2
			{
				OFFSET 0.000000 -0.000002 9.814751
				CHANNELS 3 Xrotation Yrotation Zrotation
				JOINT Neck
				{
					OFFSET 0.000000 -1.201384 25.198601
					CHANNELS 3 Xrotation Yrotation Zrotation
					JOINT Head
					{
						OFFSET 0.000000 -0.000002 7.613144
						CHANNELS 3 Xrotation Yrotation Zrotation
						End Site
						{
							OFFSET 0.000000 6.077327 18.428101
						}
					}
				}
				JOINT RightShoulder
				{
					OFFSET -4.132698 0.575449 10.599205
					CHANNELS 3 Xrotation Yrotation Zrotation
					JOINT RightArm
					{
						OFFSET 0.000000 -0.000002 13.901794
						CHANNELS 3 Xrotation Yrotation Zrotation
						JOINT RightArmRoll
						{
							OFFSET 0.000000 -0.000002 7.017883
							CHANNELS 3 Xrotation Yrotation Zrotation
							JOINT RightForeArm
							{
								OFFSET 0.000000 -0.000003 20.440598
								CHANNELS 3 Xrotation Yrotation Zrotation
								JOINT RightForeArmRoll
								{
									OFFSET 0.000000 -0.000001 7.875153
									CHANNELS 3 Xrotation Yrotation Zrotation
									JOINT RightHand
									{
										OFFSET 0.000000 -0.000003 15.803696
										CHANNELS 3 Xrotation Yrotation Zrotation
										End Site
										{
											OFFSET 0.000000 0.000000 0.100006
										}
									}
								}
							}
						}
					}
				}
				JOINT LeftShoulder
				{
					OFFSET 4.132698 0.575449 10.599205
					CHANNELS 3 Xrotation Yrotation Zrotation
					JOINT LeftArm
					{
						OFFSET 0.000000 -0.000002 13.901794
						CHANNELS 3 Xrotation Yrotation Zrotation
						JOINT LeftArmRoll
						{
							OFFSET 0.000000 -0.000002 7.017883
							CHANNELS 3 Xrotation Yrotation Zrotation
							JOINT LeftForeArm
							{
								OFFSET 0.000000 -0.000003 20.440598
								CHANNELS 3 Xrotation Yrotation Zrotation
								JOINT LeftForeArmRoll
								{
									OFFSET 0.000000 -0.000001 7.875168
									CHANNELS 3 Xrotation Yrotation Zrotation
									JOINT LeftHand
									{
										OFFSET 0.000000 -0.000003 15.803696
										CHANNELS 3 Xrotation Yrotation Zrotation
										End Site
										{
											OFFSET 0.000000 0.000000 0.100006
										}
									}
								}
							}
						}
					}
				}
			}
		}
	}
	JOINT RightUpLeg
	{
		OFFSET -7.060478 1.086090 -1.294701
		CHANNELS 3 Xrotation Yrotation Zrotation
		JOINT RightUpLegRoll
		{
			OFFSET 0.000000 -0.000003 18.530800
			CHANNELS 3 Xrotation Yrotation Zrotation
			JOINT RightLeg
			{
				OFFSET 0.000000 0.000004 -22.947601
				CHANNELS 3 Xrotation Yrotation Zrotation
				JOINT RightLegRoll
				{
					OFFSET 0.000000 -0.000004 23.022598
					CHANNELS 3 Xrotation Yrotation Zrotation
					JOINT RightFoot
					{
						OFFSET 0.000000 -0.000004 19.162506
						CHANNELS 3 Xrotation Yrotation Zrotation
						JOINT RightToeBase
						{
							OFFSET 0.000000 -0.000002 16.018799
							CHANNELS 3 Xrotation Yrotation Zrotation
							End Site
							{
								OFFSET 0.006790 0.894204 7.757812
							}
						}
					}
				}
			}
		}
	}
	JOINT LeftUpLeg
	{
		OFFSET 7.060478 1.086090 -1.294701
		CHANNELS 3 Xrotation Yrotation Zrotation
		JOINT LeftUpLegRoll
		{
			OFFSET 0.000000 -0.000003 18.530899
			CHANNELS 3 Xrotation Yrotation Zrotation
			JOINT LeftLeg
			{
				OFFSET 0.000000 -0.000004 22.947502
				CHANNELS 3 Xrotation Yrotation Zrotation
				JOINT LeftLegRoll
				{
					OFFSET 0.000000 -0.000004 23.235504
					CHANNELS 3 Xrotation Yrotation Zrotation
					JOINT LeftFoot
					{
						OFFSET 0.000000 -0.000003 18.949600
						CHANNELS 3 Xrotation Yrotation Zrotation
						JOINT LeftToeBase
						{
							OFFSET 0.000000 -0.000003 16.018799
							CHANNELS 3 Xrotation Yrotation Zrotation
							End Site
							{
								OFFSET -0.030430 0.894205 7.757812
							}
						}
					}
				}
			}
		}
	}
}
MOTION
Frames: 7
Frame Time: 0.041667
53.971001 -12.445323 95.645485 -2.820086 0.621651 1.227232 -2.019954 -0.211082 0.114032 -0.038386 -0.422432 0.223221 1.606714 -0.419719 0.228272 27.581846 0.964427 -0.435275 0.137539 0.202217 -0.374871 9.677033 -71.334147 9.114696 -50.996812 -112.943441 -27.024723 0.000003 0.000008 0.000006 0.022337 -2.315381 -0.235820 -0.000003 0.000006 -3.047169 -5.000166 -7.999822 0.000051 2.913806 74.969352 -1.262993 -55.736748 114.987724 32.123090 0.000003 0.000004 -0.000009 0.001999 -0.628196 -0.327208 0.000004 -0.000007 3.021312 -5.000175 8.000119 0.000003 4.272726 -176.179621 -1.943748 179.999991 -0.000005 -1.226998 174.759542 -2.040440 -0.604112 0.000003 -0.000000 0.099014 70.237192 6.941329 1.917272 25.864229 -7.351731 0.592306 1.141877 172.690432 -0.340290 -0.000005 -0.000004 -1.163020 -7.139220 1.626360 0.380997 0.000003 0.000001 -0.079527 70.116625 -6.685685 -2.601143 25.456953 7.355613 -0.000000 
53.971199 -12.445620 95.645996 -2.819396 0.624056 1.226083 -2.019884 -0.211077 0.114664 -0.040043 -0.422028 0.222840 1.605053 -0.419312 0.227902 27.590170 0.967421 -0.436932 0.141907 0.196288 -0.375605 9.688962 -71.334134 9.127713 -50.976939 -112.940402 -27.007106 0.000004 0.000007 0.000004 0.022335 -2.319671 -0.235822 -0.000002 0.000006 -3.047180 -5.000166 -7.999822 0.000049 2.927852 74.977473 -1.277116 -55.752601 114.962302 32.138034 0.000003 0.000003 -0.000009 0.002000 -0.615566 -0.327729 0.000002 -0.000007 3.021389 -5.000173 8.000121 0.000003 4.279441 -176.181642 -1.944078 179.999991 -0.000005 -1.226998 174.772643 -2.041476 -0.603737 0.000003 -0.000000 0.098781 70.227623 6.941324 1.917268 25.865032 -7.351728 0.594191 1.147855 172.683452 -0.353679 -0.000005 -0.000005 -1.163260 -7.129307 1.637449 0.381003 0.000002 0.000001 -0.079088 70.112438 -6.688413 -2.593876 25.456959 7.355613 0.000000 
53.975700 -12.432022 95.652794 -2.818587 0.626510 1.224985 -2.019773 -0.211069 0.115315 -0.041745 -0.421588 0.222398 1.603352 -0.418866 0.227476 27.598696 0.969836 -0.438456 0.146287 0.190777 -0.376289 9.700424 -71.334141 9.140219 -50.957890 -112.937752 -26.990259 0.000004 0.000007 0.000005 0.022335 -2.323521 -0.235852 -0.000003 0.000006 -3.047191 -5.000168 -7.999821 0.000048 2.940710 74.984412 -1.290120 -55.764157 114.939147 32.149048 0.000003 0.000004 -0.000009 0.001998 -0.603413 -0.328174 0.000001 -0.000007 3.021512 -5.000176 8.000119 0.000001 4.286152 -176.184675 -1.944456 179.999991 -0.000005 -1.226997 174.786084 -2.043520 -0.603441 0.000004 -0.000000 0.098534 70.217739 6.941307 1.917283 25.865843 -7.351721 0.596116 1.153871 172.676471 -0.367528 -0.000005 -0.000004 -1.163490 -7.118973 1.648966 0.381008 0.000003 0.000001 -0.078619 70.107964 -6.691270 -2.586346 25.456957 7.355613 -0.000001 
53.972801 -12.440017 95.652290 -2.817701 0.628995 1.223917 -2.019643 -0.211060 0.115981 -0.043477 -0.421122 0.221910 1.601623 -0.418396 0.227010 27.607215 0.971834 -0.439876 0.150665 0.185555 -0.376939 9.711580 -71.334168 9.152376 -50.937690 -112.936024 -26.972040 0.000005 0.000007 0.000003 0.022329 -2.327061 -0.235904 -0.000002 0.000006 -3.047203 -5.000167 -7.999821 0.000049 2.952706 74.990368 -1.302309 -55.774389 114.916772 32.159287 0.000000 0.000004 -0.000009 0.001998 -0.591591 -0.328566 0.000001 -0.000006 3.021642 -5.000177 8.000119 0.000003 4.292877 -176.186697 -1.944727 179.999991 -0.000005 -1.226997 174.799718 -2.044556 -0.603045 0.000003 -0.000000 0.098280 70.207549 6.941352 1.917228 25.866553 -7.351732 0.598063 1.159932 172.668480 -0.381722 -0.000005 -0.000005 -1.163720 -7.108332 1.660793 0.381011 0.000003 0.000001 -0.078130 70.103299 -6.694189 -2.578642 25.456955 7.355612 -0.000000 
53.968102 -12.449518 95.650993 -2.816773 0.631501 1.222861 -2.019503 -0.211049 0.116656 -0.045229 -0.420641 0.221398 1.599873 -0.417909 0.226520 27.615835 0.973601 -0.441244 0.155051 0.180501 -0.377568 9.722521 -71.334209 9.164307 -50.917663 -112.934364 -26.953883 0.000006 0.000007 0.000002 0.022326 -2.330411 -0.235969 -0.000004 0.000005 -3.047222 -5.000165 -7.999824 0.000050 2.964243 74.995935 -1.314056 -55.781363 114.895707 32.166192 0.000004 0.000004 -0.000008 0.002001 -0.579957 -0.328928 0.000003 -0.000007 3.021782 -5.000176 8.000119 0.000002 4.299585 -176.189716 -1.945076 179.999991 -0.000005 -1.226997 174.813515 -2.046588 -0.603730 0.000004 0.000000 0.098020 70.197337 6.941324 1.917261 25.867361 -7.351729 0.600037 1.166008 172.661500 -0.396082 -0.000005 -0.000004 -1.163960 -7.097521 1.672801 0.381013 0.000003 0.000001 -0.077629 70.098552 -6.697135 -2.570847 25.456953 7.355615 -0.000000 
53.968300 -12.450318 95.653290 -2.815822 0.634011 1.221813 -2.019363 -0.211038 0.117334 -0.046985 -0.420156 0.220879 1.598113 -0.417420 0.226026 27.624449 0.975315 -0.442602 0.159443 0.175489 -0.378190 9.733429 -71.334257 9.176203 -50.899796 -112.932240 -26.938008 0.000004 0.000007 0.000002 0.022324 -2.333720 -0.236035 -0.000003 0.000006 -3.047230 -5.000166 -7.999821 0.000048 2.975651 75.001290 -1.325690 -55.788517 114.874711 32.173439 0.000002 0.000002 -0.000010 0.001999 -0.568372 -0.329283 0.000004 -0.000007 3.021921 -5.000175 8.000119 0.000003 4.306310 -176.191751 -1.945338 179.999991 -0.000005 -1.226997 174.827298 -2.047639 -0.603329 0.000003 -0.000000 0.097759 70.187038 6.941326 1.917304 25.868172 -7.351732 0.602016 1.172090 172.653522 -0.410509 -0.000005 -0.000005 -1.164190 -7.086659 1.684837 0.381007 0.000003 0.000001 -0.077125 70.093792 -6.700085 -2.563054 25.456957 7.355613 0.000001 
53.969002 -12.448420 95.655983 -2.814903 0.636511 1.220756 -2.019232 -0.211028 0.118006 -0.048732 -0.419678 0.220374 1.596372 -0.416938 0.225543 27.632970 0.977135 -0.443981 0.163823 0.170394 -0.378822 9.744382 -71.334188 9.188141 -50.879749 -112.930600 -26.919845 0.000005 0.000007 0.000004 0.022319 -2.337120 -0.236093 -0.000005 0.000006 -3.047250 -5.000164 -7.999822 0.000049 2.987322 75.006945 -1.337572 -55.797318 114.853060 32.182338 0.000002 0.000004 -0.000007 0.001998 -0.556692 -0.329651 0.000003 -0.000007 3.022061 -5.000175 8.000120 0.000001 4.313032 -176.194784 -1.945678 179.999991 -0.000005 -1.226997 174.841027 -2.049670 -0.603017 0.000004 -0.000000 0.097501 70.176833 6.941327 1.917244 25.868976 -7.351728 0.603981 1.178158 172.646541 -0.424826 -0.000005 -0.000004 -1.164430 -7.075899 1.696796 0.380999 0.000003 0.000001 -0.076627 70.089024 -6.703001 -2.555454 25.456960 7.355613 -0.000001 
